<mxfile host="app.diagrams.net" modified="2024-01-24T02:14:16.497Z" agent="Mozilla/5.0 (X11; Linux x86_64) AppleWebKit/537.36 (KHTML, like Gecko) Chrome/120.0.0.0 Safari/537.36" etag="bDfiocnUseViTqwF9MjA" version="22.1.20" type="dropbox">
  <diagram name="Page-1" id="Kp_PQMQ12EdUjV8SzxLS">
    <mxGraphModel dx="977" dy="507" grid="1" gridSize="10" guides="1" tooltips="1" connect="1" arrows="1" fold="1" page="1" pageScale="1" pageWidth="850" pageHeight="1100" math="0" shadow="0">
      <root>
        <mxCell id="0" />
        <mxCell id="1" parent="0" />
        <mxCell id="XKWDlYaN-Zahcsnqchk5-1" value="Join Game" style="html=1;dashed=0;whiteSpace=wrap;align=left;verticalAlign=top;" parent="1" vertex="1">
          <mxGeometry x="80" y="20" width="640" height="930" as="geometry" />
        </mxCell>
        <mxCell id="XKWDlYaN-Zahcsnqchk5-2" value="WebSocket Join-Game Signal" style="html=1;shape=mxgraph.infographic.ribbonSimple;notch1=20;notch2=0;align=center;verticalAlign=middle;fontSize=14;fontStyle=0;fillColor=#FFFFFF;flipH=0;spacingRight=0;spacingLeft=14;whiteSpace=wrap;" parent="1" vertex="1">
          <mxGeometry x="10" y="80" width="120" height="60" as="geometry" />
        </mxCell>
        <mxCell id="XKWDlYaN-Zahcsnqchk5-3" value="Determine User ID associated with the signal socket." style="html=1;align=center;verticalAlign=top;rounded=1;absoluteArcSize=1;arcSize=10;dashed=0;whiteSpace=wrap;" parent="1" vertex="1">
          <mxGeometry x="180" y="80" width="140" height="55" as="geometry" />
        </mxCell>
        <mxCell id="XKWDlYaN-Zahcsnqchk5-4" value="" style="endArrow=open;startArrow=none;endFill=0;startFill=0;endSize=8;html=1;verticalAlign=bottom;labelBackgroundColor=none;strokeWidth=1;rounded=0;" parent="1" source="XKWDlYaN-Zahcsnqchk5-2" target="XKWDlYaN-Zahcsnqchk5-3" edge="1">
          <mxGeometry width="160" relative="1" as="geometry">
            <mxPoint x="140" y="110" as="sourcePoint" />
            <mxPoint x="475" y="315" as="targetPoint" />
          </mxGeometry>
        </mxCell>
        <mxCell id="XKWDlYaN-Zahcsnqchk5-5" value="" style="endArrow=open;startArrow=none;endFill=0;startFill=0;endSize=8;html=1;verticalAlign=bottom;labelBackgroundColor=none;strokeWidth=1;rounded=0;" parent="1" source="XKWDlYaN-Zahcsnqchk5-3" target="XKWDlYaN-Zahcsnqchk5-6" edge="1">
          <mxGeometry width="160" relative="1" as="geometry">
            <mxPoint x="140" y="120" as="sourcePoint" />
            <mxPoint x="190" y="120" as="targetPoint" />
          </mxGeometry>
        </mxCell>
        <mxCell id="XKWDlYaN-Zahcsnqchk5-6" value="Find the requested game." style="html=1;align=center;verticalAlign=middle;rounded=1;absoluteArcSize=1;arcSize=10;dashed=0;whiteSpace=wrap;" parent="1" vertex="1">
          <mxGeometry x="400" y="90" width="140" height="40" as="geometry" />
        </mxCell>
        <mxCell id="XKWDlYaN-Zahcsnqchk5-7" value="" style="rhombus;" parent="1" vertex="1">
          <mxGeometry x="455" y="170" width="30" height="30" as="geometry" />
        </mxCell>
        <mxCell id="XKWDlYaN-Zahcsnqchk5-8" value="" style="endArrow=open;startArrow=none;endFill=0;startFill=0;endSize=8;html=1;verticalAlign=bottom;labelBackgroundColor=none;strokeWidth=1;rounded=0;entryX=0.5;entryY=0;entryDx=0;entryDy=0;" parent="1" source="XKWDlYaN-Zahcsnqchk5-6" target="XKWDlYaN-Zahcsnqchk5-7" edge="1">
          <mxGeometry width="160" relative="1" as="geometry">
            <mxPoint x="330" y="120" as="sourcePoint" />
            <mxPoint x="410" y="120" as="targetPoint" />
          </mxGeometry>
        </mxCell>
        <mxCell id="XKWDlYaN-Zahcsnqchk5-9" value="[game joinable]" style="endArrow=open;startArrow=none;endFill=0;startFill=0;endSize=8;html=1;verticalAlign=bottom;labelBackgroundColor=none;strokeWidth=1;rounded=0;exitX=0;exitY=0.5;exitDx=0;exitDy=0;" parent="1" source="XKWDlYaN-Zahcsnqchk5-7" target="SCaRTjsYc1GQLQAjPA_0-1" edge="1">
          <mxGeometry width="160" relative="1" as="geometry">
            <mxPoint x="300" y="190" as="sourcePoint" />
            <mxPoint x="225" y="240" as="targetPoint" />
            <Array as="points">
              <mxPoint x="225" y="185" />
            </Array>
          </mxGeometry>
        </mxCell>
        <mxCell id="XKWDlYaN-Zahcsnqchk5-10" value="[else]" style="endArrow=open;startArrow=none;endFill=0;startFill=0;endSize=8;html=1;verticalAlign=bottom;labelBackgroundColor=none;strokeWidth=1;rounded=0;" parent="1" source="XKWDlYaN-Zahcsnqchk5-7" target="XKWDlYaN-Zahcsnqchk5-12" edge="1">
          <mxGeometry width="160" relative="1" as="geometry">
            <mxPoint x="540" y="190" as="sourcePoint" />
            <mxPoint x="620" y="190" as="targetPoint" />
          </mxGeometry>
        </mxCell>
        <mxCell id="XKWDlYaN-Zahcsnqchk5-12" value="Inform user that the game&lt;br&gt;is not joinable." style="html=1;shape=mxgraph.infographic.ribbonSimple;notch1=0;notch2=20;align=center;verticalAlign=middle;fontSize=14;fontStyle=0;fillColor=#FFFFFF;whiteSpace=wrap;" parent="1" vertex="1">
          <mxGeometry x="620" y="165" width="190" height="40" as="geometry" />
        </mxCell>
        <mxCell id="XKWDlYaN-Zahcsnqchk5-13" value="Mark the user as currently participating in indicated game." style="html=1;align=center;verticalAlign=middle;rounded=1;absoluteArcSize=1;arcSize=10;dashed=0;whiteSpace=wrap;" parent="1" vertex="1">
          <mxGeometry x="155" y="340" width="140" height="60" as="geometry" />
        </mxCell>
        <mxCell id="XKWDlYaN-Zahcsnqchk5-15" value="Acknowledge successful game join." style="html=1;shape=mxgraph.infographic.ribbonSimple;notch1=0;notch2=20;align=center;verticalAlign=middle;fontSize=14;fontStyle=0;fillColor=#FFFFFF;whiteSpace=wrap;" parent="1" vertex="1">
          <mxGeometry x="130" y="470" width="190" height="40" as="geometry" />
        </mxCell>
        <mxCell id="XKWDlYaN-Zahcsnqchk5-17" value="" style="rhombus;" parent="1" vertex="1">
          <mxGeometry x="540" y="475" width="30" height="30" as="geometry" />
        </mxCell>
        <mxCell id="XKWDlYaN-Zahcsnqchk5-18" value="" style="endArrow=open;startArrow=none;endFill=0;startFill=0;endSize=8;html=1;verticalAlign=bottom;labelBackgroundColor=none;strokeWidth=1;rounded=0;" parent="1" source="XKWDlYaN-Zahcsnqchk5-13" target="XKWDlYaN-Zahcsnqchk5-15" edge="1">
          <mxGeometry width="160" relative="1" as="geometry">
            <mxPoint x="235" y="350" as="sourcePoint" />
            <mxPoint x="235" y="400" as="targetPoint" />
          </mxGeometry>
        </mxCell>
        <mxCell id="XKWDlYaN-Zahcsnqchk5-20" value="Inform game owner game is startable." style="html=1;shape=mxgraph.infographic.ribbonSimple;notch1=0;notch2=20;align=center;verticalAlign=middle;fontSize=14;fontStyle=0;fillColor=#FFFFFF;whiteSpace=wrap;" parent="1" vertex="1">
          <mxGeometry x="630" y="370" width="190" height="40" as="geometry" />
        </mxCell>
        <mxCell id="XKWDlYaN-Zahcsnqchk5-21" value="[game is startable]" style="endArrow=open;startArrow=none;endFill=0;startFill=0;endSize=8;html=1;verticalAlign=bottom;labelBackgroundColor=none;strokeWidth=1;rounded=0;" parent="1" source="XKWDlYaN-Zahcsnqchk5-17" target="XKWDlYaN-Zahcsnqchk5-20" edge="1">
          <mxGeometry width="160" relative="1" as="geometry">
            <mxPoint x="470" y="465" as="sourcePoint" />
            <mxPoint x="630" y="465" as="targetPoint" />
            <Array as="points">
              <mxPoint x="555" y="390" />
            </Array>
          </mxGeometry>
        </mxCell>
        <mxCell id="XKWDlYaN-Zahcsnqchk5-23" value="[else]" style="endArrow=open;startArrow=none;endFill=0;startFill=0;endSize=8;html=1;verticalAlign=bottom;labelBackgroundColor=none;strokeWidth=1;rounded=0;" parent="1" source="XKWDlYaN-Zahcsnqchk5-17" target="SCaRTjsYc1GQLQAjPA_0-3" edge="1">
          <mxGeometry width="160" relative="1" as="geometry">
            <mxPoint x="415" y="560" as="sourcePoint" />
            <mxPoint x="265" y="550" as="targetPoint" />
          </mxGeometry>
        </mxCell>
        <mxCell id="SCaRTjsYc1GQLQAjPA_0-1" value="Add user to the game." style="html=1;align=center;verticalAlign=middle;rounded=1;absoluteArcSize=1;arcSize=10;dashed=0;whiteSpace=wrap;" vertex="1" parent="1">
          <mxGeometry x="155" y="240" width="140" height="40" as="geometry" />
        </mxCell>
        <mxCell id="SCaRTjsYc1GQLQAjPA_0-2" value="" style="endArrow=open;startArrow=none;endFill=0;startFill=0;endSize=8;html=1;verticalAlign=bottom;labelBackgroundColor=none;strokeWidth=1;rounded=0;" edge="1" parent="1" source="SCaRTjsYc1GQLQAjPA_0-1" target="XKWDlYaN-Zahcsnqchk5-13">
          <mxGeometry width="160" relative="1" as="geometry">
            <mxPoint x="235" y="290" as="sourcePoint" />
            <mxPoint x="235" y="320" as="targetPoint" />
          </mxGeometry>
        </mxCell>
        <mxCell id="SCaRTjsYc1GQLQAjPA_0-3" value="" style="html=1;shape=mxgraph.sysml.actFinal;strokeWidth=2;verticalLabelPosition=bottom;verticalAlignment=top;" vertex="1" parent="1">
          <mxGeometry x="535" y="560" width="40" height="40" as="geometry" />
        </mxCell>
        <mxCell id="SCaRTjsYc1GQLQAjPA_0-5" value="" style="endArrow=open;startArrow=none;endFill=0;startFill=0;endSize=8;html=1;verticalAlign=bottom;labelBackgroundColor=none;strokeWidth=1;rounded=0;" edge="1" parent="1" source="XKWDlYaN-Zahcsnqchk5-15" target="SCaRTjsYc1GQLQAjPA_0-8">
          <mxGeometry width="160" relative="1" as="geometry">
            <mxPoint x="400" y="360" as="sourcePoint" />
            <mxPoint x="400" y="390" as="targetPoint" />
          </mxGeometry>
        </mxCell>
        <mxCell id="SCaRTjsYc1GQLQAjPA_0-8" value="Send Game Status" style="shape=mxgraph.uml25.behaviorAction;html=1;rounded=1;absoluteArcSize=1;arcSize=10;align=left;spacingLeft=5;whiteSpace=wrap;" vertex="1" parent="1">
          <mxGeometry x="340" y="460" width="175" height="60" as="geometry" />
        </mxCell>
        <mxCell id="SCaRTjsYc1GQLQAjPA_0-9" value="" style="endArrow=open;startArrow=none;endFill=0;startFill=0;endSize=8;html=1;verticalAlign=bottom;labelBackgroundColor=none;strokeWidth=1;rounded=0;" edge="1" parent="1" source="SCaRTjsYc1GQLQAjPA_0-8" target="XKWDlYaN-Zahcsnqchk5-17">
          <mxGeometry width="160" relative="1" as="geometry">
            <mxPoint x="330" y="500" as="sourcePoint" />
            <mxPoint x="350" y="500" as="targetPoint" />
          </mxGeometry>
        </mxCell>
        <mxCell id="SCaRTjsYc1GQLQAjPA_0-11" value="Send Game Status Activity" style="html=1;dashed=0;whiteSpace=wrap;align=left;verticalAlign=top;" vertex="1" parent="1">
          <mxGeometry x="110" y="630" width="530" height="290" as="geometry" />
        </mxCell>
        <mxCell id="SCaRTjsYc1GQLQAjPA_0-7" value="Send joining user the current game state readiness, including current player count." style="html=1;shape=mxgraph.infographic.ribbonSimple;notch1=0;notch2=20;align=center;verticalAlign=middle;fontSize=14;fontStyle=0;fillColor=#FFFFFF;whiteSpace=wrap;" vertex="1" parent="1">
          <mxGeometry x="355" y="650" width="215" height="70" as="geometry" />
        </mxCell>
        <mxCell id="SCaRTjsYc1GQLQAjPA_0-20" value="" style="html=1;align=center;verticalAlign=top;rounded=1;absoluteArcSize=1;arcSize=20;dashed=1;whiteSpace=wrap;" vertex="1" parent="1">
          <mxGeometry x="160" y="810" width="300" height="90" as="geometry" />
        </mxCell>
        <mxCell id="SCaRTjsYc1GQLQAjPA_0-12" value="5 sec" style="shape=collate;html=1;" vertex="1" parent="1">
          <mxGeometry x="180" y="830" width="40" height="40" as="geometry" />
        </mxCell>
        <mxCell id="SCaRTjsYc1GQLQAjPA_0-13" value="" style="endArrow=open;startArrow=none;endFill=0;startFill=0;endSize=8;html=1;verticalAlign=bottom;labelBackgroundColor=none;strokeWidth=1;rounded=0;" edge="1" parent="1" source="SCaRTjsYc1GQLQAjPA_0-12" target="SCaRTjsYc1GQLQAjPA_0-17">
          <mxGeometry width="160" relative="1" as="geometry">
            <mxPoint x="195" y="410" as="sourcePoint" />
            <mxPoint x="195" y="440" as="targetPoint" />
            <Array as="points" />
          </mxGeometry>
        </mxCell>
        <mxCell id="SCaRTjsYc1GQLQAjPA_0-14" value="" style="html=1;shape=mxgraph.sysml.actFinal;strokeWidth=2;verticalLabelPosition=bottom;verticalAlignment=top;" vertex="1" parent="1">
          <mxGeometry x="555" y="835" width="40" height="40" as="geometry" />
        </mxCell>
        <mxCell id="SCaRTjsYc1GQLQAjPA_0-17" value="" style="rhombus;" vertex="1" parent="1">
          <mxGeometry x="185" y="760" width="30" height="30" as="geometry" />
        </mxCell>
        <mxCell id="SCaRTjsYc1GQLQAjPA_0-18" value="[else]" style="endArrow=open;startArrow=none;endFill=0;startFill=0;endSize=8;html=1;verticalAlign=bottom;labelBackgroundColor=none;strokeWidth=1;rounded=0;exitX=0.5;exitY=0;exitDx=0;exitDy=0;" edge="1" parent="1" source="SCaRTjsYc1GQLQAjPA_0-17" target="SCaRTjsYc1GQLQAjPA_0-7">
          <mxGeometry width="160" relative="1" as="geometry">
            <mxPoint x="230" y="775" as="sourcePoint" />
            <mxPoint x="273" y="775" as="targetPoint" />
            <Array as="points">
              <mxPoint x="200" y="685" />
            </Array>
          </mxGeometry>
        </mxCell>
        <mxCell id="SCaRTjsYc1GQLQAjPA_0-22" value="Stop sending updates about game state." style="html=1;align=center;verticalAlign=middle;rounded=1;absoluteArcSize=1;arcSize=10;dashed=0;whiteSpace=wrap;" vertex="1" parent="1">
          <mxGeometry x="285" y="835" width="140" height="40" as="geometry" />
        </mxCell>
        <mxCell id="SCaRTjsYc1GQLQAjPA_0-23" value="" style="shape=mxgraph.lean_mapping.electronic_info_flow_edge;html=1;rounded=0;" edge="1" parent="1" source="SCaRTjsYc1GQLQAjPA_0-22" target="SCaRTjsYc1GQLQAjPA_0-14">
          <mxGeometry width="160" relative="1" as="geometry">
            <mxPoint x="340" y="830" as="sourcePoint" />
            <mxPoint x="500" y="830" as="targetPoint" />
          </mxGeometry>
        </mxCell>
        <mxCell id="SCaRTjsYc1GQLQAjPA_0-24" value="[game has started]" style="endArrow=open;startArrow=none;endFill=0;startFill=0;endSize=8;html=1;verticalAlign=bottom;labelBackgroundColor=none;strokeWidth=1;rounded=0;exitX=1;exitY=0.5;exitDx=0;exitDy=0;" edge="1" parent="1" source="SCaRTjsYc1GQLQAjPA_0-17" target="SCaRTjsYc1GQLQAjPA_0-22">
          <mxGeometry width="160" relative="1" as="geometry">
            <mxPoint x="210" y="770" as="sourcePoint" />
            <mxPoint x="303" y="698" as="targetPoint" />
            <Array as="points">
              <mxPoint x="355" y="775" />
            </Array>
          </mxGeometry>
        </mxCell>
      </root>
    </mxGraphModel>
  </diagram>
</mxfile>
